<svg width="32" height="32" viewBox="0 0 32 32" fill="none" xmlns="http://www.w3.org/2000/svg">
<path d="M22.4479 12.408H18.4399V11.4128H22.4495V12.4096L22.4479 12.408ZM15.7711 16.4928C16.0303 16.8928 16.1583 17.3792 16.1583 17.9504C16.1583 18.5424 16.0143 19.0704 15.7167 19.5392C15.5185 19.8685 15.2535 20.1527 14.9388 20.3734C14.6241 20.5941 14.2667 20.7465 13.8895 20.8208C13.4265 20.9134 12.9553 20.9584 12.4831 20.9552H7.99994V11H12.8079C14.0191 11.0192 14.8783 11.3712 15.3855 12.0608C15.6895 12.4832 15.8415 12.9904 15.8415 13.5808C15.8415 14.1888 15.6895 14.6768 15.3807 15.0464C15.2111 15.2544 14.9583 15.4432 14.6239 15.6128C15.1295 15.7984 15.5135 16.0896 15.7711 16.4928V16.4928ZM10.2959 14.9248H12.4031C12.8351 14.9248 13.1855 14.8432 13.4543 14.6784C13.7247 14.5136 13.8591 14.2224 13.8591 13.8032C13.8591 13.3392 13.6815 13.032 13.3247 12.8848C12.9435 12.7706 12.5466 12.7177 12.1487 12.728H10.2959V14.9248V14.9248ZM14.0623 17.808C14.0623 17.2912 13.8495 16.9344 13.4287 16.7424C13.1919 16.6336 12.8591 16.5776 12.4335 16.5728H10.2959V19.2256H12.3999C12.8319 19.2256 13.1679 19.1696 13.4079 19.0512C13.8431 18.8352 14.0623 18.4224 14.0623 17.808ZM23.9359 16.1888C23.9839 16.5152 24.0063 16.9872 23.9983 17.6048H18.8063C18.8351 18.3216 19.0815 18.8224 19.5519 19.1088C19.8335 19.2896 20.1759 19.3776 20.5791 19.3776C21.0031 19.3776 21.3471 19.2704 21.6143 19.0496C21.7734 18.9138 21.9035 18.7473 21.9967 18.56H23.9007C23.8495 18.984 23.6207 19.4128 23.2095 19.8496C22.5695 20.5424 21.6767 20.8896 20.5263 20.8896C19.612 20.9014 18.7227 20.591 18.0143 20.0128C17.2911 19.4272 16.9263 18.4768 16.9263 17.1568C16.9263 15.92 17.2543 14.9728 17.9087 14.3136C18.5647 13.6528 19.4143 13.3248 20.4607 13.3248C21.0799 13.3248 21.6383 13.4352 22.1375 13.6576C22.6335 13.8816 23.0447 14.232 23.3679 14.7136C23.6607 15.1392 23.8479 15.6288 23.9359 16.1888V16.1888ZM22.0639 16.3744C22.0287 15.8784 21.8623 15.504 21.5647 15.248C21.2575 14.9864 20.864 14.8484 20.4607 14.8608C19.9807 14.8608 19.6111 15 19.3471 15.2704C19.0831 15.5424 18.9183 15.9104 18.8511 16.3744H22.0639V16.3744Z" fill="black"/>
<path d="M31 16C31 24.2843 24.2843 31 16 31C7.71573 31 1 24.2843 1 16C1 7.71573 7.71573 1 16 1C24.2843 1 31 7.71573 31 16Z" stroke="black" stroke-width="2"/>
</svg>
