<svg width="32" height="32" viewBox="0 0 32 32" fill="none" xmlns="http://www.w3.org/2000/svg">
<path d="M16 0C7.1632 0 0 7.1632 0 16C0 24.8368 7.1632 32 16 32C24.8368 32 32 24.8368 32 16C32 7.1632 24.8368 0 16 0ZM16 2.3184C19.4856 2.3184 22.6672 3.6224 25.0832 5.768C23.308 8.1096 20.6112 9.6688 17.9088 10.724C16.379 7.93787 14.6645 5.25722 12.7768 2.7C13.8326 2.44552 14.9148 2.31742 16.0008 2.3184H16ZM10.1792 3.6144C11.9632 6.2832 13.6912 8.7576 15.2696 11.5584C11.2776 12.5928 6.7664 13.2136 2.5992 13.224C3.4776 8.9616 6.3408 5.4224 10.1792 3.6152V3.6144ZM26.6008 7.3504C28.5778 9.76636 29.6654 12.7879 29.6816 15.9096C26.5168 15.2856 23.3696 15.1224 20.1648 15.4456C19.8048 14.5472 19.368 13.6936 18.9496 12.7736C21.712 11.6592 24.6656 9.752 26.6008 7.3496V7.3504ZM16.3808 13.6752C16.7232 14.4032 17.12 15.176 17.4928 15.9656C13.0368 17.9304 8.2968 20.556 5.8368 25.1592C3.47521 22.5458 2.21664 19.1199 2.3248 15.5992C7.0968 15.5768 11.7808 14.98 16.3808 13.6752V13.6752ZM23.6112 17.4056C25.6022 17.406 27.585 17.6614 29.5112 18.1656C29.2142 20.0186 28.5391 21.7907 27.528 23.3716C26.5168 24.9525 25.1912 26.3085 23.6336 27.3552C22.8992 24.0152 22.1992 20.8192 20.9616 17.5968C21.8387 17.469 22.724 17.4048 23.6104 17.4048L23.6112 17.4056ZM29.5824 17.6536C29.5728 17.732 29.564 17.8088 29.5528 17.8856C29.564 17.808 29.5736 17.7312 29.5824 17.6536ZM18.4304 18.2216C19.6912 21.48 20.6808 25.088 21.3448 28.5992C19.6546 29.3164 17.8369 29.6848 16.0008 29.6824C12.9591 29.6867 10.0034 28.6729 7.6048 26.8024C10.0824 22.7832 13.92 19.7416 18.4296 18.2224L18.4304 18.2216Z" fill="black"/>
</svg>
