<svg width="32" height="32" viewBox="0 0 32 32" fill="none" xmlns="http://www.w3.org/2000/svg">
<path d="M25 16.8079V22.7231H21.5712V17.2031C21.5712 15.8175 21.0752 14.8719 19.8336 14.8719C18.8864 14.8719 18.3216 15.5087 18.0736 16.1263C17.984 16.3471 17.96 16.6543 17.96 16.9615V22.7231H14.5296C14.5296 22.7231 14.576 13.3759 14.5296 12.4079H17.96V13.8687L17.9376 13.9023H17.96V13.8703C18.416 13.1663 19.2288 12.1647 21.0512 12.1647C23.3072 12.1647 25 13.6399 25 16.8079V16.8079ZM10.9408 7.43353C9.768 7.43353 9 8.20473 9 9.21593C9 10.2079 9.7456 10.9999 10.896 10.9999H10.9184C12.1152 10.9999 12.8592 10.2063 12.8592 9.21593C12.8368 8.20473 12.1152 7.43353 10.9408 7.43353ZM9.2032 22.7231H12.6336V12.4079H9.2032V22.7231V22.7231Z" fill="black"/>
<path d="M31 16C31 24.2843 24.2843 31 16 31C7.71573 31 1 24.2843 1 16C1 7.71573 7.71573 1 16 1C24.2843 1 31 7.71573 31 16Z" stroke="black" stroke-width="2"/>
</svg>
